<svg width="36" height="36" xmlns="http://www.w3.org/2000/svg">

 <g>
  <title>background</title>
  <rect fill="none" id="canvas_background" height="402" width="582" y="-1" x="-1"/>
 </g>
 <g>
  <title>Layer 1</title>
  <path fill="#82589f" id="close_1_" d="m6.2,3.5l-2.7,2.7c-0.7,0.7 -0.7,1.9 0,2.7l9.2,9.2l-9.2,9.2c-0.7,0.7 -0.7,1.9 0,2.7l2.6,2.6c0.7,0.7 1.9,0.7 2.7,0l9.2,-9.2l9.2,9.2c0.7,0.7 1.9,0.7 2.7,0l2.6,-2.6c0.7,-0.7 0.7,-1.9 0,-2.7l-9.2,-9.3l9.2,-9.2c0.7,-0.7 0.7,-1.9 0,-2.7l-2.6,-2.6c-0.7,-0.7 -1.9,-0.7 -2.7,0l-9.2,9.2l-9.2,-9.2c-0.7,-0.7 -1.9,-0.7 -2.6,0z" class="st0"/>
 </g>
</svg>