<svg xmlns="http://www.w3.org/2000/svg" xmlns:xlink="http://www.w3.org/1999/xlink" version="1.1" width="256" height="256" viewBox="0 0 256 256" xml:space="preserve">
<desc>Created with Fabric.js 1.7.22</desc>
<defs>
</defs>
<g transform="translate(128 128) scale(0.72 0.72)" style="">
	<g style="stroke: none; stroke-width: 0; stroke-dasharray: none; stroke-linecap: butt; stroke-linejoin: miter; stroke-miterlimit: 10; fill: none; fill-rule: nonzero; opacity: 1;" transform="translate(-175.05 -175.05000000000004) scale(3.89 3.89)" >
	<path d="M 57.721 41.217 c -2.417 0 -4.834 -0.92 -6.674 -2.76 c -3.68 -3.68 -3.68 -9.669 0 -13.349 c 3.68 -3.679 9.669 -3.68 13.349 0 c 3.68 3.68 3.68 9.669 0 13.349 C 62.555 40.297 60.139 41.217 57.721 41.217 z M 57.721 28.345 c -0.881 0 -1.762 0.335 -2.433 1.006 c -1.341 1.341 -1.341 3.523 0 4.864 c 1.342 1.34 3.523 1.341 4.865 0 c 1.341 -1.341 1.341 -3.523 0 -4.865 C 59.482 28.68 58.602 28.345 57.721 28.345 z" style="stroke: none; stroke-width: 1; stroke-dasharray: none; stroke-linecap: butt; stroke-linejoin: miter; stroke-miterlimit: 10; fill: rgb(0,0,0); fill-rule: nonzero; opacity: 1;" transform=" matrix(1 0 0 1 0 0) " stroke-linecap="round" />
	<path d="M 10.9 82.1 c -0.768 0 -1.536 -0.293 -2.121 -0.879 c -1.172 -1.171 -1.172 -3.071 0 -4.242 l 25.304 -25.304 c 1.171 -1.172 3.071 -1.172 4.242 0 c 1.172 1.171 1.172 3.071 0 4.242 L 13.021 81.221 C 12.435 81.807 11.667 82.1 10.9 82.1 z" style="stroke: none; stroke-width: 1; stroke-dasharray: none; stroke-linecap: butt; stroke-linejoin: miter; stroke-miterlimit: 10; fill: rgb(0,0,0); fill-rule: nonzero; opacity: 1;" transform=" matrix(1 0 0 1 0 0) " stroke-linecap="round" />
	<path d="M 12.027 65.878 c -0.768 0 -1.536 -0.293 -2.121 -0.879 c -1.172 -1.171 -1.172 -3.071 0 -4.242 l 4.751 -4.751 c 1.171 -1.172 3.071 -1.172 4.242 0 c 1.172 1.171 1.172 3.071 0 4.242 l -4.751 4.751 C 13.563 65.585 12.795 65.878 12.027 65.878 z" style="stroke: none; stroke-width: 1; stroke-dasharray: none; stroke-linecap: butt; stroke-linejoin: miter; stroke-miterlimit: 10; fill: rgb(0,0,0); fill-rule: nonzero; opacity: 1;" transform=" matrix(1 0 0 1 0 0) " stroke-linecap="round" />
	<path d="M 27.122 80.972 c -0.768 0 -1.536 -0.293 -2.121 -0.879 c -1.171 -1.172 -1.171 -3.071 0 -4.242 l 4.75 -4.75 c 1.171 -1.172 3.071 -1.172 4.242 0 s 1.171 3.071 0 4.242 l -4.75 4.75 C 28.658 80.679 27.89 80.972 27.122 80.972 z" style="stroke: none; stroke-width: 1; stroke-dasharray: none; stroke-linecap: butt; stroke-linejoin: miter; stroke-miterlimit: 10; fill: rgb(0,0,0); fill-rule: nonzero; opacity: 1;" transform=" matrix(1 0 0 1 0 0) " stroke-linecap="round" />
	<path d="M 88.435 1.566 c -1.127 -1.128 -2.685 -1.691 -4.273 -1.542 C 70.332 1.318 54.467 9.681 36.05 25.436 l -17.455 -0.442 c -3.224 -0.08 -6.382 1.179 -8.664 3.461 l -8.323 8.323 c -1.396 1.397 -1.926 3.37 -1.418 5.279 c 0.508 1.908 1.95 3.356 3.855 3.872 l 12.47 3.382 l 4.54 4.539 c 1.172 1.172 3.071 1.172 4.242 0 c 1.171 -1.172 1.171 -3.071 0 -4.242 l -3.01 -3.01 C 46.864 21.604 67.583 7.983 83.918 6.081 c -1.901 16.336 -15.523 37.055 -40.517 61.631 l -3.01 -3.01 c -1.171 -1.172 -3.071 -1.172 -4.242 0 c -1.172 1.171 -1.172 3.071 0 4.242 l 4.539 4.539 l 3.382 12.471 c 0.518 1.906 1.966 3.348 3.875 3.855 C 48.422 89.938 48.903 90 49.376 90 c 1.427 -0.001 2.799 -0.561 3.845 -1.608 l 8.323 -8.323 c 2.281 -2.28 3.543 -5.438 3.462 -8.665 l -0.443 -17.453 C 80.318 35.534 88.681 19.669 89.976 5.839 C 90.125 4.251 89.563 2.693 88.435 1.566 z M 17.156 43.269 L 6.494 40.377 l 7.679 -7.679 c 1.125 -1.124 2.678 -1.744 4.27 -1.705 l 11.038 0.279 C 25.49 34.942 21.383 38.94 17.156 43.269 z M 59.008 71.556 c 0.04 1.59 -0.582 3.147 -1.706 4.271 l -7.679 7.679 l -2.891 -10.662 c 4.329 -4.226 8.326 -8.333 11.997 -12.324 L 59.008 71.556 z" style="stroke: none; stroke-width: 1; stroke-dasharray: none; stroke-linecap: butt; stroke-linejoin: miter; stroke-miterlimit: 10; fill: rgb(0,0,0); fill-rule: nonzero; opacity: 1;" transform=" matrix(1 0 0 1 0 0) " stroke-linecap="round" />
</g>
</g>
</svg>