<svg xmlns="http://www.w3.org/2000/svg" xmlns:xlink="http://www.w3.org/1999/xlink" version="1.1" width="256" height="256" viewBox="0 0 256 256" xml:space="preserve">
<desc>Created with Fabric.js 1.7.22</desc>
<defs>
</defs>
<g transform="translate(128 128) scale(0.72 0.72)" style="">
	<g style="stroke: none; stroke-width: 0; stroke-dasharray: none; stroke-linecap: butt; stroke-linejoin: miter; stroke-miterlimit: 10; fill: none; fill-rule: nonzero; opacity: 1;" transform="translate(-175.05 -175.05000000000004) scale(3.89 3.89)" >
	<path d="M 45 51.868 c -0.552 0 -1 -0.447 -1 -1 V 1 c 0 -0.552 0.448 -1 1 -1 s 1 0.448 1 1 v 49.868 C 46 51.421 45.552 51.868 45 51.868 z" style="stroke: none; stroke-width: 1; stroke-dasharray: none; stroke-linecap: butt; stroke-linejoin: miter; stroke-miterlimit: 10; fill: rgb(0,0,0); fill-rule: nonzero; opacity: 1;" transform=" matrix(1 0 0 1 0 0) " stroke-linecap="round" />
	<path d="M 45 26.709 c -12.172 0 -23.679 -3.858 -31.572 -10.584 c -0.42 -0.358 -0.471 -0.99 -0.113 -1.41 c 0.358 -0.422 0.989 -0.471 1.41 -0.113 C 22.262 21.025 33.296 24.709 45 24.709 c 11.704 0 22.738 -3.684 30.274 -10.106 c 0.421 -0.357 1.052 -0.309 1.409 0.113 c 0.358 0.42 0.309 1.051 -0.112 1.41 C 68.68 22.852 57.172 26.709 45 26.709 z" style="stroke: none; stroke-width: 1; stroke-dasharray: none; stroke-linecap: butt; stroke-linejoin: miter; stroke-miterlimit: 10; fill: rgb(0,0,0); fill-rule: nonzero; opacity: 1;" transform=" matrix(1 0 0 1 0 0) " stroke-linecap="round" />
	<path d="M 85.474 42.474 H 4.526 c -0.552 0 -1 -0.448 -1 -1 s 0.448 -1 1 -1 h 80.947 c 0.553 0 1 0.448 1 1 S 86.026 42.474 85.474 42.474 z" style="stroke: none; stroke-width: 1; stroke-dasharray: none; stroke-linecap: butt; stroke-linejoin: miter; stroke-miterlimit: 10; fill: rgb(0,0,0); fill-rule: nonzero; opacity: 1;" transform=" matrix(1 0 0 1 0 0) " stroke-linecap="round" />
	<path d="M 18.926 79.54 c -0.552 0 -1 -0.447 -1 -1 v -6.723 c 0 -0.939 -0.765 -1.704 -1.704 -1.704 h -1.724 v 8.427 c 0 0.553 -0.448 1 -1 1 s -1 -0.447 -1 -1 v -9.427 c 0 -0.553 0.448 -1 1 -1 h 2.724 c 2.042 0 3.704 1.662 3.704 3.704 v 6.723 C 19.926 79.093 19.478 79.54 18.926 79.54 z" style="stroke: none; stroke-width: 1; stroke-dasharray: none; stroke-linecap: butt; stroke-linejoin: miter; stroke-miterlimit: 10; fill: rgb(0,0,0); fill-rule: nonzero; opacity: 1;" transform=" matrix(1 0 0 1 0 0) " stroke-linecap="round" />
	<path d="M 13.498 70.113 c -0.552 0 -1 -0.447 -1 -1 v -6.336 c 0 -0.553 0.448 -1 1 -1 s 1 0.447 1 1 v 6.336 C 14.498 69.666 14.05 70.113 13.498 70.113 z" style="stroke: none; stroke-width: 1; stroke-dasharray: none; stroke-linecap: butt; stroke-linejoin: miter; stroke-miterlimit: 10; fill: rgb(0,0,0); fill-rule: nonzero; opacity: 1;" transform=" matrix(1 0 0 1 0 0) " stroke-linecap="round" />
	<path d="M 26.767 79.54 h -0.514 c -1.457 0 -2.643 -1.185 -2.643 -2.642 V 65.374 c 0 -0.553 0.448 -1 1 -1 s 1 0.447 1 1 v 11.524 c 0 0.354 0.288 0.642 0.643 0.642 h 0.514 c 0.552 0 1 0.447 1 1 S 27.319 79.54 26.767 79.54 z" style="stroke: none; stroke-width: 1; stroke-dasharray: none; stroke-linecap: butt; stroke-linejoin: miter; stroke-miterlimit: 10; fill: rgb(0,0,0); fill-rule: nonzero; opacity: 1;" transform=" matrix(1 0 0 1 0 0) " stroke-linecap="round" />
	<path d="M 26.767 68.915 h -3.263 c -0.552 0 -1 -0.447 -1 -1 s 0.448 -1 1 -1 h 3.263 c 0.552 0 1 0.447 1 1 S 27.319 68.915 26.767 68.915 z" style="stroke: none; stroke-width: 1; stroke-dasharray: none; stroke-linecap: butt; stroke-linejoin: miter; stroke-miterlimit: 10; fill: rgb(0,0,0); fill-rule: nonzero; opacity: 1;" transform=" matrix(1 0 0 1 0 0) " stroke-linecap="round" />
	<path d="M 34.977 79.54 h -0.515 c -1.457 0 -2.642 -1.185 -2.642 -2.642 V 65.374 c 0 -0.553 0.448 -1 1 -1 s 1 0.447 1 1 v 11.524 c 0 0.354 0.288 0.642 0.642 0.642 h 0.515 c 0.552 0 1 0.447 1 1 S 35.529 79.54 34.977 79.54 z" style="stroke: none; stroke-width: 1; stroke-dasharray: none; stroke-linecap: butt; stroke-linejoin: miter; stroke-miterlimit: 10; fill: rgb(0,0,0); fill-rule: nonzero; opacity: 1;" transform=" matrix(1 0 0 1 0 0) " stroke-linecap="round" />
	<path d="M 34.977 68.915 h -3.264 c -0.552 0 -1 -0.447 -1 -1 s 0.448 -1 1 -1 h 3.264 c 0.552 0 1 0.447 1 1 S 35.529 68.915 34.977 68.915 z" style="stroke: none; stroke-width: 1; stroke-dasharray: none; stroke-linecap: butt; stroke-linejoin: miter; stroke-miterlimit: 10; fill: rgb(0,0,0); fill-rule: nonzero; opacity: 1;" transform=" matrix(1 0 0 1 0 0) " stroke-linecap="round" />
	<path d="M 44.794 79.54 h -4.084 c -0.552 0 -1 -0.447 -1 -1 v -9.427 c 0 -0.553 0.448 -1 1 -1 h 4.084 c 1.292 0 2.344 1.052 2.344 2.344 v 6.739 C 47.138 78.488 46.086 79.54 44.794 79.54 z M 41.709 77.54 h 3.084 c 0.189 0 0.344 -0.154 0.344 -0.344 v -6.739 c 0 -0.189 -0.154 -0.344 -0.344 -0.344 h -3.084 V 77.54 z" style="stroke: none; stroke-width: 1; stroke-dasharray: none; stroke-linecap: butt; stroke-linejoin: miter; stroke-miterlimit: 10; fill: rgb(0,0,0); fill-rule: nonzero; opacity: 1;" transform=" matrix(1 0 0 1 0 0) " stroke-linecap="round" />
	<path d="M 40.709 84.581 c -0.552 0 -1 -0.447 -1 -1 V 78.54 c 0 -0.553 0.448 -1 1 -1 s 1 0.447 1 1 v 5.041 C 41.709 84.134 41.262 84.581 40.709 84.581 z" style="stroke: none; stroke-width: 1; stroke-dasharray: none; stroke-linecap: butt; stroke-linejoin: miter; stroke-miterlimit: 10; fill: rgb(0,0,0); fill-rule: nonzero; opacity: 1;" transform=" matrix(1 0 0 1 0 0) " stroke-linecap="round" />
	<path d="M 54.528 79.54 h -3.071 c -0.553 0 -1 -0.447 -1 -1 s 0.447 -1 1 -1 h 3.071 c 0.748 0 1.357 -0.608 1.357 -1.356 s -0.609 -1.356 -1.357 -1.356 h -1.227 c -0.553 0 -1 -0.447 -1 -1 s 0.447 -1 1 -1 h 1.227 c 1.852 0 3.357 1.506 3.357 3.356 S 56.38 79.54 54.528 79.54 z" style="stroke: none; stroke-width: 1; stroke-dasharray: none; stroke-linecap: butt; stroke-linejoin: miter; stroke-miterlimit: 10; fill: rgb(0,0,0); fill-rule: nonzero; opacity: 1;" transform=" matrix(1 0 0 1 0 0) " stroke-linecap="round" />
	<path d="M 54.672 74.827 h -0.858 c -1.851 0 -3.356 -1.506 -3.356 -3.357 c 0 -1.851 1.506 -3.356 3.356 -3.356 h 1.596 c 0.553 0 1 0.447 1 1 s -0.447 1 -1 1 h -1.596 c -0.748 0 -1.356 0.608 -1.356 1.356 s 0.608 1.357 1.356 1.357 h 0.858 c 0.553 0 1 0.447 1 1 S 55.225 74.827 54.672 74.827 z" style="stroke: none; stroke-width: 1; stroke-dasharray: none; stroke-linecap: butt; stroke-linejoin: miter; stroke-miterlimit: 10; fill: rgb(0,0,0); fill-rule: nonzero; opacity: 1;" transform=" matrix(1 0 0 1 0 0) " stroke-linecap="round" />
	<path d="M 68.134 79.54 c -0.131 0 -0.263 -0.025 -0.391 -0.079 c -0.508 -0.216 -0.745 -0.803 -0.53 -1.312 l 3.915 -9.239 c 0.217 -0.509 0.804 -0.743 1.312 -0.53 c 0.508 0.216 0.745 0.803 0.53 1.312 l -3.915 9.239 C 68.893 79.312 68.522 79.54 68.134 79.54 z" style="stroke: none; stroke-width: 1; stroke-dasharray: none; stroke-linecap: butt; stroke-linejoin: miter; stroke-miterlimit: 10; fill: rgb(0,0,0); fill-rule: nonzero; opacity: 1;" transform=" matrix(1 0 0 1 0 0) " stroke-linecap="round" />
	<path d="M 73.776 79.54 c -0.131 0 -0.263 -0.025 -0.39 -0.079 c -0.509 -0.216 -0.746 -0.803 -0.531 -1.311 l 3.914 -9.239 c 0.216 -0.51 0.806 -0.744 1.311 -0.531 c 0.509 0.216 0.746 0.803 0.531 1.311 l -3.914 9.239 C 74.536 79.312 74.165 79.54 73.776 79.54 z" style="stroke: none; stroke-width: 1; stroke-dasharray: none; stroke-linecap: butt; stroke-linejoin: miter; stroke-miterlimit: 10; fill: rgb(0,0,0); fill-rule: nonzero; opacity: 1;" transform=" matrix(1 0 0 1 0 0) " stroke-linecap="round" />
	<circle cx="62.514" cy="73.034" r="1.024" style="stroke: none; stroke-width: 1; stroke-dasharray: none; stroke-linecap: butt; stroke-linejoin: miter; stroke-miterlimit: 10; fill: rgb(0,0,0); fill-rule: nonzero; opacity: 1;" transform="  matrix(1 0 0 1 0 0) "/>
	<path d="M 62.517 74.555 c -0.84 0 -1.523 -0.684 -1.523 -1.524 c 0 -0.84 0.684 -1.523 1.523 -1.523 c 0.841 0 1.524 0.684 1.524 1.523 C 64.041 73.871 63.357 74.555 62.517 74.555 z M 62.517 72.507 c -0.289 0 -0.523 0.234 -0.523 0.523 s 0.234 0.524 0.523 0.524 s 0.524 -0.235 0.524 -0.524 S 62.806 72.507 62.517 72.507 z" style="stroke: none; stroke-width: 1; stroke-dasharray: none; stroke-linecap: butt; stroke-linejoin: miter; stroke-miterlimit: 10; fill: rgb(0,0,0); fill-rule: nonzero; opacity: 1;" transform=" matrix(1 0 0 1 0 0) " stroke-linecap="round" />
	<circle cx="62.514" cy="78.154" r="1.024" style="stroke: none; stroke-width: 1; stroke-dasharray: none; stroke-linecap: butt; stroke-linejoin: miter; stroke-miterlimit: 10; fill: rgb(0,0,0); fill-rule: nonzero; opacity: 1;" transform="  matrix(1 0 0 1 0 0) "/>
	<path d="M 62.517 79.673 c -0.84 0 -1.523 -0.684 -1.523 -1.524 c 0 -0.84 0.684 -1.523 1.523 -1.523 c 0.841 0 1.524 0.684 1.524 1.523 C 64.041 78.989 63.357 79.673 62.517 79.673 z M 62.517 77.625 c -0.289 0 -0.523 0.234 -0.523 0.523 s 0.234 0.524 0.523 0.524 s 0.524 -0.235 0.524 -0.524 S 62.806 77.625 62.517 77.625 z" style="stroke: none; stroke-width: 1; stroke-dasharray: none; stroke-linecap: butt; stroke-linejoin: miter; stroke-miterlimit: 10; fill: rgb(0,0,0); fill-rule: nonzero; opacity: 1;" transform=" matrix(1 0 0 1 0 0) " stroke-linecap="round" />
	<path d="M 84.919 90 H 5.081 c -1.895 0 -3.437 -1.542 -3.437 -3.438 V 58.854 c 0 -1.896 1.542 -3.438 3.437 -3.438 h 79.838 c 1.896 0 3.438 1.542 3.438 3.438 v 27.708 C 88.356 88.458 86.814 90 84.919 90 z M 5.081 57.417 c -0.792 0 -1.437 0.645 -1.437 1.438 v 27.708 C 3.644 87.355 4.289 88 5.081 88 h 79.838 c 0.793 0 1.438 -0.645 1.438 -1.438 V 58.854 c 0 -0.793 -0.645 -1.438 -1.438 -1.438 H 5.081 z" style="stroke: none; stroke-width: 1; stroke-dasharray: none; stroke-linecap: butt; stroke-linejoin: miter; stroke-miterlimit: 10; fill: rgb(0,0,0); fill-rule: nonzero; opacity: 1;" transform=" matrix(1 0 0 1 0 0) " stroke-linecap="round" />
	<path d="M 5.633 51.868 c -0.453 0 -0.863 -0.31 -0.972 -0.769 c -0.753 -3.168 -1.135 -6.406 -1.135 -9.626 C 3.526 18.605 22.131 0 45 0 c 22.868 0 41.474 18.605 41.474 41.474 c 0 3.219 -0.382 6.458 -1.135 9.626 c -0.128 0.537 -0.665 0.872 -1.204 0.741 c -0.537 -0.127 -0.869 -0.667 -0.741 -1.204 c 0.717 -3.017 1.08 -6.1 1.08 -9.163 C 84.474 19.708 66.766 2 45 2 S 5.526 19.708 5.526 41.474 c 0 3.064 0.364 6.147 1.081 9.163 c 0.128 0.537 -0.204 1.076 -0.741 1.204 C 5.788 51.859 5.71 51.868 5.633 51.868 z" style="stroke: none; stroke-width: 1; stroke-dasharray: none; stroke-linecap: butt; stroke-linejoin: miter; stroke-miterlimit: 10; fill: rgb(0,0,0); fill-rule: nonzero; opacity: 1;" transform=" matrix(1 0 0 1 0 0) " stroke-linecap="round" />
	<path d="M 65.409 51.868 c -0.041 0 -0.082 -0.002 -0.123 -0.008 c -0.549 -0.067 -0.938 -0.566 -0.87 -1.114 c 0.376 -3.049 0.566 -6.168 0.566 -9.272 C 64.982 19.708 56.019 2 45 2 S 25.017 19.708 25.017 41.474 c 0 3.1 0.19 6.22 0.567 9.272 c 0.067 0.548 -0.322 1.047 -0.871 1.114 c -0.542 0.079 -1.047 -0.321 -1.115 -0.87 c -0.386 -3.134 -0.582 -6.335 -0.582 -9.517 C 23.017 18.605 32.878 0 45 0 c 12.121 0 21.982 18.605 21.982 41.474 c 0 3.186 -0.195 6.388 -0.582 9.517 C 66.338 51.497 65.907 51.868 65.409 51.868 z" style="stroke: none; stroke-width: 1; stroke-dasharray: none; stroke-linecap: butt; stroke-linejoin: miter; stroke-miterlimit: 10; fill: rgb(0,0,0); fill-rule: nonzero; opacity: 1;" transform=" matrix(1 0 0 1 0 0) " stroke-linecap="round" />
</g>
</g>
</svg>